<svg width="162" height="53" viewBox="0 0 162 53" fill="none" xmlns="http://www.w3.org/2000/svg">
<path fill-rule="evenodd" clip-rule="evenodd" d="M90.0848 0.00038491C85.42 0.00621738 81.8074 3.36082 81.8074 6.85809C81.8074 14.7871 94.0603 12.5883 94.0264 18.7622C94.0603 23.6544 87.4917 25.5243 83.311 22.152C82.4 21.4859 82.2693 20.0733 82.0465 19.1564C81.3175 19.1903 81.3186 19.1903 81.3361 19.1564L81.5753 23.6486C81.5811 23.6883 84.8275 25.0682 88.194 25.0682C94.0603 25.0344 96.9823 21.0917 96.9427 17.4977C96.9823 9.53473 84.6338 11.734 84.6513 5.67993C84.6968 1.32249 89.918 0.205105 93.792 2.36942C94.7147 2.83077 95.1428 5.26291 95.1311 5.28565H95.8415L95.6829 1.02527C95.6992 0.991089 92.6138 0.0060774 90.0848 0.00038491ZM0 0.478799C0.03412 0.467134 0.03412 0.467134 0 1.10532C2.3695 1.45282 2.33415 1.45399 2.36262 8.35718V16.7118C2.33415 23.621 2.33532 23.6222 0 24.0433C0.034155 24.6417 0.0341549 24.6405 3.49728e-05 24.6743C0.0341549 24.6405 2.267 24.4749 4.02129 24.4352C5.74712 24.4749 7.95028 24.6405 7.95588 24.6743C7.95004 24.6405 7.95004 24.6417 7.95588 24.0433C5.64913 23.6222 5.6503 23.621 5.67305 16.7118V8.35718C5.6503 1.45399 5.64913 1.45282 7.95588 1.10532C7.95004 0.467484 7.95004 0.467484 7.95588 0.478799C7.95004 0.467134 5.74712 0.565353 4.02129 0.554038C2.267 0.565703 0.0341783 0.467484 0 0.478799ZM19.2297 4.26081C13.4998 4.24378 8.70345 8.7104 8.66939 14.5888C8.70356 20.4668 13.4998 24.903 19.2297 24.9088C24.8627 24.903 29.6908 20.4668 29.7141 14.5888C29.7199 8.7104 24.8627 4.24378 19.2297 4.26081ZM27.9784 4.49551C28.018 4.50682 28.046 4.44313 28.0577 5.04679C29.7211 5.49111 29.8844 5.69046 30.4198 6.85812L37.7524 24.9085H38.303L43.1101 13.4826L47.8449 24.9085H48.5507L55.489 6.85812C55.9614 5.75275 56.2274 5.19459 57.612 5.04644C57.6353 4.47696 57.6353 4.50682 57.612 4.49516C57.6353 4.50647 55.9602 4.54077 54.6957 4.57483C53.4313 4.54065 51.9218 4.50682 51.9393 4.49516C51.9218 4.50647 51.9218 4.44278 51.9393 5.04644C53.927 5.19459 54.2513 5.49076 53.9095 6.93744L48.9426 20.6531L43.2699 6.93744C42.8943 5.75275 43.4822 5.19459 44.9287 5.04644C44.9625 4.47696 44.9625 4.50682 44.9287 4.49516C44.9625 4.50647 43.0553 4.54077 41.4537 4.57483C39.8708 4.54065 38.0032 4.50682 37.9916 4.49516C38.0032 4.50647 38.0032 4.44278 37.9916 5.04644C39.6083 5.39394 39.704 5.49076 40.433 6.93744L42.4044 11.9837L38.7778 20.6531L33.3361 6.93744C32.9091 5.75275 33.3664 5.19459 34.9948 5.04644C34.9785 4.47696 34.9785 4.50682 34.9948 4.49516C34.9785 4.50647 33.041 4.54077 31.4452 4.57483C29.8564 4.54065 28.018 4.50717 27.9784 4.49551ZM59.4305 4.49551C59.413 4.50682 59.413 4.40895 59.4305 4.96712C60.9225 5.36011 62.2651 5.46265 61.7134 6.93779L55.1693 22.3052C54.5546 23.7178 54.389 23.719 53.2785 24.1226C53.2726 24.7723 53.3018 24.6405 53.2785 24.6743C53.3018 24.6405 54.7471 24.5379 55.9602 24.5145C57.276 24.5379 58.6548 24.6405 58.6373 24.6743C58.6548 24.6405 58.6548 24.7047 58.6373 24.1226C57.6062 23.9523 56.3242 23.8823 56.9856 22.3052L59.2707 16.3992H65.8894L68.0194 22.3052C68.64 23.8823 67.8188 23.9185 66.5998 24.1226C66.5718 24.7035 66.5718 24.6405 66.5998 24.6743C66.5718 24.6405 68.5094 24.5379 70.0701 24.5145C71.6589 24.5379 73.5311 24.6405 73.537 24.6743C73.5311 24.6405 73.5311 24.7047 73.537 24.1226C72.5804 23.9523 71.7604 23.7178 71.1678 22.3052L64.31 4.49516C64.3392 4.50682 63.217 4.54112 61.9525 4.57518C60.6939 4.541 59.413 4.50717 59.4305 4.49551ZM148.015 4.49551V5.04679C149.263 5.22911 149.858 5.29747 149.905 7.96303V21.2062C149.823 23.7865 149.59 23.8215 148.015 24.0431V24.5949C147.98 24.5716 150.71 24.4748 152.67 24.4351C153.894 24.4748 160.823 24.5716 160.788 24.5949C160.823 24.5716 161.547 21.8793 161.815 20.8878L161.255 20.7326C160.403 23.4214 158.059 23.622 152.506 23.2569V14.661C158.327 14.6902 159.085 14.5584 159.214 16.6324H159.68C159.645 14.724 159.704 13.54 159.844 11.592H159.284C159.144 13.7675 158.362 13.6369 152.506 13.6427C152.518 13.6369 152.518 5.69175 152.506 5.68008C158.817 5.19599 159.505 6.01498 160.228 7.88324L160.707 7.72378C160.625 7.16549 160.333 5.16741 160.31 4.49539C159.774 4.5067 156.122 4.57506 154.093 4.57506C152.121 4.57506 147.98 4.50717 148.015 4.49551ZM97.4139 4.57518L97.1025 8.35718C97.113 8.35135 96.9812 8.35135 97.5737 8.35718C98.1943 6.08462 98.8511 5.72581 102.068 5.75999H104.272V21.1274C104.306 23.5257 104.239 23.8838 102.068 24.0436C102.04 24.6759 102.04 24.6409 102.068 24.6747C102.04 24.6409 104.239 24.5382 105.771 24.5149C107.258 24.5382 109.426 24.6409 109.398 24.6747C109.426 24.6409 109.426 24.6759 109.398 24.0436C107.257 23.8838 107.194 23.5537 107.188 21.1274V5.75999C107.194 5.72616 107.257 5.72616 109.398 5.76034C112.61 5.72616 113.3 6.08497 113.814 8.35753C114.486 8.3517 114.353 8.3517 114.364 8.35753L114.206 4.57553C114.188 4.60982 107.258 4.70664 105.771 4.7351C104.239 4.70652 97.4373 4.60936 97.4139 4.57518ZM117.826 4.57518C117.873 4.60936 117.873 4.50577 117.826 5.12658C119.378 5.45693 120.731 5.55947 120.194 7.01758L113.654 22.385C113.01 23.8151 112.845 23.8151 111.763 24.2759C111.729 24.8684 111.757 24.7378 111.763 24.7541C111.757 24.7378 113.204 24.641 114.44 24.6748C115.738 24.641 117.115 24.7378 117.127 24.7541C117.115 24.7378 117.115 24.8066 117.127 24.2035C116.065 24.0496 114.782 23.9796 115.385 22.385L117.756 16.4802H124.37L126.505 22.385C127.1 23.9796 126.272 24.0157 125 24.2035C125.024 24.8066 125.024 24.7378 125 24.7541C125.024 24.7378 126.96 24.641 128.558 24.6748C130.11 24.641 131.988 24.7378 132.023 24.7541C131.988 24.7378 131.988 24.8066 132.023 24.2035C131.043 24.0496 130.215 23.8151 129.573 22.385L122.796 4.57611C122.796 4.60994 121.676 4.6384 120.428 4.65543C119.145 4.6384 117.873 4.60936 117.826 4.57518ZM129.655 4.57518L129.34 8.35718C129.363 8.35135 129.235 8.35135 129.888 8.35718C130.448 6.08462 131.101 5.72581 134.309 5.75999H136.595V21.1274C136.549 23.5257 136.49 23.8838 134.309 24.0436C134.286 24.6759 134.286 24.6409 134.309 24.6747C134.286 24.6409 136.49 24.5382 138.007 24.5149C139.512 24.5382 141.681 24.6409 141.716 24.6747C141.681 24.6409 141.681 24.6759 141.716 24.0436C139.512 23.8838 139.442 23.5537 139.43 21.1274V5.75999C139.442 5.72616 139.512 5.72616 141.716 5.76034C144.866 5.72616 145.554 6.08497 146.056 8.35753C146.732 8.3517 146.604 8.3517 146.604 8.35753L146.441 4.57553C146.441 4.60982 139.512 4.70664 138.007 4.7351C136.49 4.70652 129.69 4.60936 129.655 4.57518ZM19.2297 5.20637C22.9881 5.22911 26.4736 8.08947 26.4794 14.5888C26.4736 21.0932 22.9881 23.9185 19.2297 23.8835C15.4012 23.9185 11.9204 21.0932 11.8982 14.5888C11.9204 8.08947 15.4012 5.22911 19.2297 5.20637ZM62.7387 7.49141L65.4147 14.9003H59.8225L62.7387 7.49141ZM121.221 7.5712L123.822 14.9808H118.305L121.221 7.5712Z" fill="#90A1B9"/>
<path fill-rule="evenodd" clip-rule="evenodd" d="M86.149 32.1593C86.1548 32.1422 87.8919 32.2106 88.6723 32.2391C89.6349 32.2106 91.6056 31.9771 93.0808 32.0055C96.4013 32.0114 100.309 33.327 100.337 37.2058C100.309 40.9763 96.954 41.4035 95.6838 41.9333C97.1191 43.1123 99.3234 46.5583 100.178 47.8455C102.211 51.1547 102.177 51.354 103.96 51.6276V52.1003C103.988 52.0776 102.769 52.0092 102.149 52.0263C101.522 52.0092 100.337 52.0433 99.8645 52.0263C98.5317 50.534 97.1533 48.0051 96.0769 46.4274C94.5276 43.9668 93.0809 42.2923 90.8767 42.4859C90.8825 42.4859 90.8825 48.5634 90.8767 48.4779C91.0133 51.2574 91.3096 51.3201 92.7677 51.6277V52.0265C92.7848 52.0435 91.2412 52.0435 89.3787 52.0265C88.3193 52.0094 86.155 52.0778 86.1493 52.1005V51.6278C87.5334 51.4512 88.0574 50.9956 88.0403 48.478V35.3947C88.0574 33.2246 87.4651 32.7689 86.1493 32.6323L86.149 32.1593ZM90.8765 33.4238C92.9839 32.6036 97.2217 32.8314 97.3412 37.2855C97.4153 41.8307 92.7219 41.9959 90.8765 41.5402V33.4238ZM115.784 32.4783C115.772 32.4724 113.244 31.6809 111.21 31.6866C107.332 31.6807 104.347 34.4433 104.353 37.3652C104.347 43.8356 114.429 42.03 114.44 47.0593C114.428 51.1262 109.04 52.6697 105.537 49.8958C104.837 49.3547 104.74 48.17 104.592 47.4523C103.954 47.4465 103.954 47.4465 103.96 47.4523L104.193 51.1546C104.182 51.1604 106.842 52.3052 109.633 52.3393C114.429 52.2766 116.861 49.0245 116.884 46.0341C116.861 39.501 106.677 41.3066 106.717 36.34C106.745 32.7688 111.045 31.8461 114.206 33.6573C114.987 33.982 115.317 35.9868 115.311 36.0211H115.938L115.784 32.4783ZM126.504 35.7875L126.817 32.0054C126.84 32.0112 133.64 32.1079 135.173 32.0852C136.659 32.1079 143.591 32.0111 143.608 32.0054L143.762 35.7875C143.756 35.7533 143.887 35.7533 143.209 35.7875C142.703 33.4921 142.013 33.1276 138.795 33.1048C136.659 33.1276 136.597 33.1276 136.591 33.1048V48.558C136.597 50.9615 136.659 51.2919 138.795 51.4742C138.829 52.0779 138.829 52.0438 138.795 52.021C138.829 52.0437 136.659 51.9469 135.173 51.9469C133.64 51.9469 131.436 52.0437 131.465 52.021C131.436 52.0437 131.436 52.078 131.465 51.4742C133.64 51.2919 133.709 50.9274 133.675 48.558V33.1048H131.465C128.252 33.1276 127.597 33.4921 126.976 35.7875C126.384 35.7533 126.515 35.7533 126.504 35.7875ZM71.3284 32.0054C71.3401 32.0112 75.4807 32.0795 77.4741 32.0795C79.4847 32.0795 83.13 32.0111 83.6256 32.0054C83.6883 32.6661 83.9844 34.671 84.0186 35.2348L83.6256 35.3943C82.8681 33.5203 82.1789 32.7003 75.9021 33.1844C75.8737 33.1961 75.8737 41.1413 75.9021 41.147C81.7175 41.1412 82.5091 41.2723 82.68 39.0966H83.2325C83.0616 41.0445 82.999 42.2236 83.073 44.143H82.5205C82.4408 42.064 81.6889 42.1951 75.902 42.1722V50.7614C81.4212 51.126 83.7564 50.9266 84.5709 48.2381L85.1975 48.3976C84.907 49.383 84.1836 52.077 84.1779 52.0999C84.1837 52.0772 77.2519 51.9804 76.0558 51.9461C74.0679 51.9803 71.3396 52.0772 71.3283 52.0999V51.5474C72.9516 51.3196 73.1793 51.2911 73.2193 48.711V35.4683C73.2135 32.7971 72.8491 32.6034 71.3283 32.5578L71.3284 32.0054ZM45.9484 38.5442V45.4816C45.92 51.1603 45.9542 51.1603 44.0574 51.4736C44.0515 52.0147 44.0515 52.0147 44.0574 52.0204C44.0515 52.0146 45.9198 51.8779 47.3666 51.8666C48.7791 51.8783 50.6189 52.0147 50.6019 52.0204C50.6189 52.0146 50.6189 52.0146 50.6019 51.4736C48.7165 51.1603 48.7165 51.1603 48.7108 45.4816V38.5442C48.7166 32.8313 48.7167 32.8313 50.6019 32.5579C50.6189 32.0111 50.6189 32.0111 50.6019 32.0054C50.6189 32.0112 48.7792 32.0795 47.3666 32.0851C45.9199 32.0793 44.0517 32.0111 44.0574 32.0054C44.0515 32.0112 44.0515 32.0112 44.0574 32.5579C45.9882 32.8313 45.9198 32.8313 45.9484 38.5442ZM120.985 38.5442V45.4816C120.962 51.1603 120.996 51.1603 119.094 51.4736V52.0204C119.094 52.0146 120.962 51.8779 122.403 51.8666C123.821 51.8783 125.661 52.0147 125.632 52.0204C125.661 52.0146 125.661 52.0146 125.632 51.4736C123.753 51.1603 123.753 51.1603 123.741 45.4816V38.5442C123.753 32.8313 123.753 32.8313 125.632 32.5579C125.661 32.0111 125.661 32.0111 125.632 32.0054C125.661 32.0112 123.821 32.0795 122.403 32.0851C120.962 32.0793 119.094 32.0111 119.094 32.0054V32.5579C121.03 32.8313 120.962 32.8313 120.985 38.5442ZM144.071 32.0847C144.111 32.0449 145.916 32.1075 147.306 32.0847C148.679 32.1075 150.615 32.0449 150.615 32.0847V32.5518C149.368 32.9277 148.645 32.996 149.51 34.3687L153.771 41.3005L157.707 34.4428C158.231 33.3891 158.498 32.7967 156.528 32.4777V32.0847C156.528 32.0449 157.872 32.1074 159.125 32.0847C160.304 32.1074 161.483 32.0449 161.494 32.0847V32.4777C160.201 32.7967 160.173 33.127 159.284 34.3687L154.164 42.3257L154.244 48.5568C154.227 51.2224 154.916 51.1256 156.528 51.473V51.9458C156.528 51.9799 154.454 51.8774 152.979 51.866C151.436 51.8777 149.3 51.9799 149.277 51.9458V51.473C151.139 51.1256 151.367 51.2566 151.401 48.5568L151.481 42.3257L146.361 34.4428C145.165 32.8651 145.261 32.8309 144.071 32.5518L144.071 32.0847ZM20.3307 32.005C20.3707 32.0108 21.5496 32.0791 22.854 32.0791C24.2096 32.0791 24.7678 32.0107 24.745 32.005L38.4604 47.531V35.3934C38.4662 33.0923 38.0047 32.7335 36.0966 32.4771V32.0044C36.0682 32.0102 37.7086 32.1069 39.0129 32.0784C40.3685 32.1069 41.8494 32.0101 41.8494 32.0044V32.4771C40.2717 33.0296 39.8444 33.1264 39.8786 35.3934V52.3381L38.8533 52.2584L24.5854 36.0995V48.4765C24.5737 50.3675 24.836 51.1534 26.8693 51.4725V51.9452C26.8409 51.9793 25.229 51.8768 23.879 51.8654C22.6032 51.8771 20.9912 51.9793 20.9628 51.9452V51.4725C22.9278 51.1535 23.2582 50.3675 23.2468 48.4765V35.3932C23.2585 33.2231 21.783 32.8642 20.3306 32.477L20.3307 32.005ZM50.5984 32.0847C50.5813 32.0449 53.1444 32.1075 53.8278 32.0847C54.5227 32.1075 57.4788 32.0107 57.456 32.005V32.4777C55.867 32.734 55.3429 33.1612 56.2713 35.394L61.5513 48.0841L66.6775 34.289C66.8714 33.4243 66.9676 32.9286 65.4133 32.4795V32.0865C65.3962 32.0467 67.8568 32.1092 68.8022 32.0865C69.9585 32.0748 71.371 32.0467 71.4053 32.0865V32.4795C69.4687 32.5022 69.0415 32.9294 68.0961 35.3957L60.9991 52.4994H60.3726C60.401 52.471 53.8681 36.5462 53.2756 35.4686C52.2903 33.3612 52.3244 32.7346 50.5987 32.4783L50.5984 32.0847Z" fill="#90A1B9"/>
<path d="M0.949619 32.0098C0.961284 32.0156 2.91473 32.1009 4.25882 32.0839C5.67707 32.1009 7.60228 32.0155 7.56802 32.0098V32.5623C6.70796 32.8015 5.62582 32.6136 5.59724 35.8715V44.3809C5.62567 47.7585 6.43451 48.5217 6.46869 48.4819C6.43457 48.5217 7.65338 50.8797 11.0367 50.8456C14.1067 50.8797 15.354 48.5446 15.3711 48.5559C15.354 48.5443 16.0603 47.8667 16.0831 44.5404C16.1115 44.6429 16.1115 35.917 16.0831 35.9512C16.0603 32.8812 15.7869 32.9097 13.6395 32.5623V32.0098C13.6454 32.0156 14.8357 32.1009 16.7894 32.0839C18.2247 32.1009 19.4436 32.0155 19.472 32.0098C19.4436 32.0156 19.4436 32.5566 19.472 32.5623C18.1962 32.8015 17.4387 32.9667 17.5012 35.7917V45.3265C17.4954 48.63 15.7868 50.0938 15.764 50.0597C15.7868 50.0938 13.9186 52.3152 9.93154 52.3437C5.67675 52.3152 3.85981 49.5242 3.8655 49.5072C3.85967 49.5242 2.77761 48.4136 2.76052 44.381V35.9514C2.77758 32.8813 2.37317 32.7503 0.949219 32.5624L0.949619 32.0098Z" fill="#90A1B9"/>
</svg>
