<svg preserveAspectRatio="none" width="100%" height="100%" overflow="visible" style="display: block;" viewBox="0 0 138.624 101.928" fill="none" xmlns="http://www.w3.org/2000/svg">
<g id="Group">
<path id="experiencing" d="M136.691 16.6235V4.88763H134.677V6.72372H134.653C134.266 6.01256 133.732 5.47902 133.042 5.12343C132.356 4.76785 131.6 4.58989 130.779 4.58989C129.658 4.58989 128.71 4.80086 127.937 5.22279C127.168 5.64439 126.547 6.18201 126.078 6.83533C125.609 7.48865 125.271 8.21648 125.071 9.01884C124.871 9.82119 124.771 10.6024 124.771 11.3636C124.771 12.2402 124.892 13.0714 125.133 13.8571C125.378 14.6428 125.74 15.3291 126.226 15.9164C126.713 16.5034 127.316 16.9709 128.037 17.3183C128.758 17.6654 129.607 17.8393 130.579 17.8393C131.417 17.8393 132.211 17.6532 132.956 17.2809C133.701 16.9087 134.259 16.3258 134.629 15.5319H134.677V16.3755C134.677 17.0866 134.608 17.7399 134.463 18.3354C134.322 18.9309 134.09 19.4396 133.773 19.8615C133.456 20.2831 133.052 20.6139 132.566 20.8537C132.08 21.0936 131.483 21.2134 130.779 21.2134C130.427 21.2134 130.058 21.1763 129.672 21.1018C129.286 21.0276 128.931 20.9075 128.603 20.7421C128.279 20.5768 127.999 20.3617 127.775 20.097C127.547 19.8323 127.427 19.51 127.409 19.1293H125.271C125.306 19.8241 125.488 20.4114 125.826 20.8912C126.161 21.3706 126.585 21.7595 127.096 22.0573C127.606 22.355 128.175 22.5701 128.806 22.7021C129.434 22.8344 130.052 22.9008 130.655 22.9008C132.732 22.9008 134.259 22.3799 135.232 21.3376C136.205 20.2957 136.691 18.7243 136.691 16.6235ZM26.4569 4.88763V22.6031H28.5953V16.0032H28.6471C28.8816 16.3836 29.1713 16.7021 29.5128 16.9583C29.8577 17.2149 30.2233 17.4174 30.6096 17.5664C30.9925 17.7151 31.3822 17.8226 31.7754 17.889C32.1721 17.955 32.5274 17.988 32.8447 17.988C33.8346 17.988 34.7037 17.8145 35.4487 17.467C36.1938 17.1196 36.8146 16.6443 37.3113 16.0403C37.8045 15.4367 38.1736 14.7296 38.415 13.9191C38.6599 13.1085 38.7806 12.2483 38.7806 11.3388C38.7806 10.4289 38.6565 9.56871 38.4047 8.75819C38.1529 7.94767 37.7804 7.23242 37.2837 6.61211C36.7905 5.9918 36.1696 5.49977 35.4246 5.13568C34.6796 4.77193 33.8035 4.58989 32.7964 4.58989C31.8893 4.58989 31.0615 4.75118 30.3061 5.07375C29.5508 5.39633 28.9989 5.9132 28.6471 6.62436H28.5953V4.88763H26.4569ZM11.7946 13.6462H9.68374C9.49749 14.4897 9.1181 15.1182 8.53865 15.5319C7.95919 15.9454 7.21761 16.1519 6.31393 16.1519C5.61031 16.1519 4.99638 16.0362 4.47556 15.8048C3.95819 15.5731 3.53047 15.2631 3.1959 14.8742C2.85789 14.4856 2.61645 14.0388 2.46469 13.5346C2.31293 13.0299 2.24741 12.4964 2.26466 11.9343H11.9981C12.0291 11.1567 11.9602 10.3381 11.7843 9.47786C11.6083 8.61766 11.2876 7.82381 10.8288 7.09597C10.3667 6.36814 9.75617 5.76859 8.99046 5.29697C8.2282 4.8257 7.26935 4.58989 6.11045 4.58989C5.22402 4.58989 4.40658 4.75526 3.65812 5.08634C2.91311 5.41709 2.26812 5.88019 1.72316 6.47566C1.1782 7.07114 0.753936 7.77413 0.453862 8.58465C0.150338 9.39517 0.00204735 10.2884 0.00204735 11.2643C0.0330895 12.2402 0.181367 13.1415 0.440052 13.9687C0.702186 14.7956 1.08849 15.5071 1.60931 16.1026C2.13013 16.698 2.7717 17.1611 3.53395 17.4919C4.29621 17.8226 5.19987 17.988 6.23806 17.988C7.71429 17.988 8.93529 17.6242 9.90794 16.8964C10.8806 16.1686 11.5118 15.0852 11.7946 13.6462ZM102.51 9.00625H104.725C104.642 8.2454 104.438 7.588 104.121 7.03405C103.804 6.47975 103.397 6.02072 102.9 5.65698C102.407 5.29289 101.838 5.02408 101.189 4.85054C100.544 4.677 99.8544 4.58989 99.1163 4.58989C98.0919 4.58989 97.1951 4.76785 96.426 5.12343C95.6533 5.47902 95.0118 5.96696 94.5014 6.58727C93.9909 7.20758 93.608 7.93542 93.3562 8.77078C93.1044 9.60614 92.9803 10.5034 92.9803 11.4627C92.9803 12.4222 93.1113 13.3028 93.37 14.1052C93.6287 14.9075 94.015 15.5979 94.5255 16.1767C95.0394 16.7559 95.6741 17.2023 96.4363 17.5167C97.202 17.8311 98.0781 17.988 99.0645 17.988C100.727 17.988 102.038 17.5579 103 16.698C103.966 15.8378 104.566 14.6139 104.8 13.0258H102.614C102.479 14.0184 102.114 14.7874 101.517 15.3332C100.924 15.879 100.096 16.1519 99.0404 16.1519C98.3713 16.1519 97.7918 16.0199 97.3055 15.7551C96.8192 15.4904 96.426 15.1389 96.1224 14.7007C95.8224 14.2624 95.5982 13.7619 95.4568 13.1994C95.3154 12.6373 95.2429 12.0581 95.2429 11.4627C95.2429 10.8175 95.3084 10.1931 95.443 9.58947C95.5775 8.98583 95.8017 8.45229 96.1121 7.98918C96.4225 7.52608 96.8364 7.15382 97.3572 6.87276C97.8746 6.59136 98.5196 6.45083 99.2922 6.45083C100.199 6.45083 100.917 6.67404 101.455 7.12082C101.993 7.56725 102.345 8.19606 102.51 9.00625ZM51.9597 13.6462H49.8489C49.6626 14.4897 49.2798 15.1182 48.7038 15.5319C48.1243 15.9454 47.3828 16.1519 46.4791 16.1519C45.772 16.1519 45.1615 16.0362 44.6407 15.8048C44.1233 15.5731 43.6956 15.2631 43.3576 14.8742C43.0231 14.4856 42.7816 14.0388 42.6299 13.5346C42.4781 13.0299 42.4125 12.4964 42.4298 11.9343H52.1598C52.1943 11.1567 52.1219 10.3381 51.946 9.47786C51.7701 8.61766 51.4527 7.82381 50.9905 7.09597C50.5318 6.36814 49.9178 5.76859 49.1556 5.29697C48.3933 4.8257 47.4345 4.58989 46.2756 4.58989C45.3857 4.58989 44.5717 4.75526 43.8232 5.08634C43.0782 5.41709 42.4332 5.88019 41.8883 6.47566C41.3433 7.07114 40.9191 7.77413 40.619 8.58465C40.3155 9.39517 40.1637 10.2884 40.1637 11.2643C40.1982 12.2402 40.3465 13.1415 40.6052 13.9687C40.8639 14.7956 41.2537 15.5071 41.7745 16.1026C42.2953 16.698 42.9368 17.1611 43.6991 17.4919C44.4613 17.8226 45.3615 17.988 46.4032 17.988C47.876 17.988 49.1004 17.6242 50.0731 16.8964C51.0457 16.1686 51.6735 15.0852 51.9597 13.6462ZM78.1421 13.6462H76.0278C75.845 14.4897 75.4621 15.1182 74.8827 15.5319C74.3067 15.9454 73.5651 16.1519 72.658 16.1519C71.9544 16.1519 71.3404 16.0362 70.8231 15.8048C70.3022 15.5731 69.8746 15.2631 69.54 14.8742C69.2054 14.4856 68.9605 14.0388 68.8122 13.5346C68.6605 13.0299 68.5915 12.4964 68.6087 11.9343H78.3421C78.3766 11.1567 78.3042 10.3381 78.1283 9.47786C77.9524 8.61766 77.6351 7.82381 77.1729 7.09597C76.7107 6.36814 76.1002 5.76859 75.338 5.29697C74.5757 4.8257 73.6134 4.58989 72.4579 4.58989C71.5681 4.58989 70.7506 4.75526 70.0056 5.08634C69.2606 5.41709 68.6122 5.88019 68.0672 6.47566C67.5222 7.07114 67.1014 7.77413 66.7979 8.58465C66.4978 9.39517 66.3461 10.2884 66.3461 11.2643C66.3806 12.2402 66.5255 13.1415 66.7841 13.9687C67.0463 14.7956 67.436 15.5071 67.9568 16.1026C68.4742 16.698 69.1157 17.1611 69.878 17.4919C70.6437 17.8226 71.5439 17.988 72.5821 17.988C74.0583 17.988 75.2828 17.6242 76.2554 16.8964C77.2281 16.1686 77.8558 15.0852 78.1421 13.6462ZM62.0209 4.88763V17.7151H64.1593V4.88763H62.0209ZM106.887 4.88763V17.7151H109.026V4.88763H106.887ZM53.8706 4.88763V17.7151H56.009V12.0084C56.009 11.1816 56.0918 10.4497 56.2608 9.81269C56.4298 9.17604 56.6954 8.63433 57.0645 8.18756C57.4335 7.74113 57.9198 7.40188 58.5234 7.17049C59.127 6.93877 59.8582 6.82308 60.7136 6.82308V4.58989C59.5547 4.55689 58.5993 4.78861 57.844 5.28472C57.0921 5.78083 56.454 6.55018 55.9331 7.59209H55.8848V4.88763H53.8706ZM111.916 4.88763V17.7151H114.054V10.4704C114.054 9.89129 114.134 9.35775 114.292 8.8698C114.455 8.38185 114.693 7.95618 115.01 7.59209C115.331 7.22834 115.727 6.94694 116.207 6.74856C116.683 6.55018 117.248 6.45083 117.904 6.45083C118.725 6.45083 119.37 6.68255 119.839 7.14566C120.308 7.60876 120.546 8.23724 120.546 9.03109V17.7151H122.681V9.27948C122.681 8.58465 122.612 7.95209 122.467 7.38112C122.325 6.81049 122.077 6.31846 121.725 5.90503C121.374 5.4916 120.911 5.16903 120.342 4.93731C119.773 4.70593 119.059 4.58989 118.204 4.58989C116.276 4.58989 114.868 5.36741 113.979 6.9221H113.93V4.88763H111.916ZM80.1288 4.88763V17.7151H82.2673V10.4704C82.2673 9.89129 82.3466 9.35775 82.5053 8.8698C82.6639 8.38185 82.9019 7.95618 83.2227 7.59209C83.54 7.22834 83.9367 6.94694 84.4161 6.74856C84.8921 6.55018 85.4612 6.45083 86.113 6.45083C86.9339 6.45083 87.5824 6.68255 88.0515 7.14566C88.5205 7.60876 88.7551 8.23724 88.7551 9.03109V17.7151H90.8935V9.27948C90.8935 8.58465 90.8211 7.95209 90.6797 7.38112C90.5348 6.81049 90.29 6.31846 89.9382 5.90503C89.5829 5.4916 89.1242 5.16903 88.5551 4.93731C87.9825 4.70593 87.272 4.58989 86.4166 4.58989C84.4885 4.58989 83.0778 5.36741 82.1914 6.9221H82.1396V4.88763H80.1288ZM17.2787 10.9665L12.3982 17.7151H14.9885L18.6101 12.4055L22.2317 17.7151H24.9737L19.9449 10.7927L24.4219 4.88763H21.8557L18.6101 9.3785L15.4921 4.88763H12.75L17.2787 10.9665ZM36.518 11.1898C36.518 11.8182 36.4524 12.4304 36.3179 13.0258C36.1834 13.6213 35.9661 14.1508 35.6626 14.6139C35.3625 15.077 34.9624 15.4492 34.4692 15.7303C33.9725 16.0114 33.3586 16.1519 32.6205 16.1519C31.8824 16.1519 31.2546 16.0155 30.7338 15.7426C30.213 15.4697 29.7887 15.11 29.4645 14.6632C29.1368 14.2168 28.8989 13.6999 28.7471 13.1126C28.5953 12.5257 28.5194 11.9176 28.5194 11.2891C28.5194 10.6936 28.5919 10.1063 28.7333 9.52754C28.8782 8.9484 29.1058 8.43153 29.4266 7.97659C29.7439 7.52199 30.1543 7.15382 30.6579 6.87276C31.1615 6.59136 31.772 6.45083 32.4929 6.45083C33.1827 6.45083 33.7794 6.58319 34.2933 6.84792C34.8038 7.11265 35.2211 7.46823 35.5488 7.91466C35.8764 8.36144 36.1213 8.8698 36.28 9.44077C36.4387 10.0114 36.518 10.5943 36.518 11.1898ZM130.703 16.0032C130 16.0032 129.413 15.8586 128.944 15.569C128.475 15.2795 128.096 14.899 127.813 14.4278C127.527 13.9561 127.327 13.4311 127.209 12.8523C127.092 12.2732 127.034 11.6944 127.034 11.1152C127.034 10.5034 127.103 9.91613 127.247 9.35366C127.389 8.79154 127.616 8.29508 127.927 7.86498C128.237 7.43488 128.634 7.09189 129.12 6.83533C129.607 6.57911 130.193 6.45083 130.879 6.45083C131.552 6.45083 132.121 6.58319 132.59 6.84792C133.059 7.11265 133.442 7.46415 133.735 7.90241C134.028 8.34068 134.242 8.83271 134.377 9.3785C134.511 9.92429 134.577 10.4786 134.577 11.0411C134.577 11.6365 134.508 12.232 134.363 12.8275C134.222 13.4229 134.001 13.9561 133.697 14.4278C133.397 14.899 132.997 15.2795 132.504 15.569C132.007 15.8586 131.411 16.0032 130.703 16.0032ZM76.0795 10.0733H68.6087C68.6432 9.57722 68.7501 9.10969 68.9364 8.67142C69.1192 8.23316 69.371 7.84865 69.6917 7.51757C70.0091 7.18683 70.3919 6.92652 70.8334 6.73631C71.2784 6.5461 71.7785 6.45083 72.3303 6.45083C72.8684 6.45083 73.3582 6.5461 73.8031 6.73631C74.248 6.92652 74.6309 7.18274 74.9586 7.50532C75.2862 7.82789 75.5484 8.2124 75.7381 8.65917C75.9312 9.10561 76.045 9.57722 76.0795 10.0733ZM9.73203 10.0733H2.26466C2.2957 9.57722 2.40605 9.10969 2.59231 8.67142C2.77511 8.23316 3.02692 7.84865 3.34424 7.51757C3.66501 7.18683 4.04439 6.92652 4.48933 6.73631C4.93427 6.5461 5.43442 6.45083 5.98628 6.45083C6.5209 6.45083 7.01413 6.5461 7.45562 6.73631C7.90055 6.92652 8.28685 7.18274 8.61452 7.50532C8.94219 7.82789 9.20088 8.2124 9.39403 8.65917C9.58718 9.10561 9.70099 9.57722 9.73203 10.0733ZM49.8972 10.0733H42.4298C42.4608 9.57722 42.5712 9.10969 42.754 8.67142C42.9403 8.23316 43.192 7.84865 43.5094 7.51757C43.8301 7.18683 44.2096 6.92652 44.6545 6.73631C45.0994 6.5461 45.5961 6.45083 46.1514 6.45083C46.686 6.45083 47.1793 6.5461 47.6207 6.73631C48.0657 6.92652 48.452 7.18274 48.7796 7.50532C49.1039 7.82789 49.366 8.2124 49.5592 8.65917C49.7523 9.10561 49.8661 9.57722 49.8972 10.0733ZM109.026 2.58026V0H106.887V2.58026H109.026ZM64.1593 2.58026V0H62.0209V2.58026H64.1593Z" fill="var(--fill-0, #525860)"/>
<path id="U" d="M64.3282 72.124V25.8565H47.7444V72.124C47.7444 77.6814 46.6176 81.7649 44.3643 84.3701C42.111 86.9753 38.0265 88.2779 32.1112 88.2779C28.731 88.2779 26.0378 87.8078 24.0306 86.8699C22.0238 85.9319 20.457 84.7172 19.3302 83.2235C18.2033 81.7298 17.4641 80.0098 17.1121 78.0636C16.7598 76.1196 16.5838 74.1405 16.5838 72.124V25.8565H6.28198e-05V72.124C6.28198e-05 82.268 2.79916 89.7716 8.39736 94.6327C13.9959 99.4961 21.9006 101.928 32.1112 101.928C42.1815 101.928 50.0683 99.4785 55.7723 94.5822C61.4764 89.6838 64.3282 82.1977 64.3282 72.124Z" fill="var(--fill-0, #00CCFF)"/>
<path id="X" d="M93.3096 61.288L67.0075 100.261H85.5984L102.393 74.5204L118.872 100.261H138.624L112.323 61.3913L136.512 25.8565H118.344L103.027 49.6152L88.2393 25.8565H69.0147L93.3096 61.288Z" fill="var(--fill-0, #0099FF)"/>
</g>
</svg>
