<svg width="139" height="139" viewBox="0 0 139 139" fill="none" xmlns="http://www.w3.org/2000/svg">
<path d="M64.3281 77.267V30.9995H47.7444V77.267C47.7444 82.8244 46.6175 86.9079 44.3642 89.5131C42.1109 92.1183 38.0264 93.4209 32.1111 93.4209C28.731 93.4209 26.0377 92.9508 24.0305 92.0129C22.0238 91.0749 20.4569 89.8602 19.3301 88.3665C18.2032 86.8728 17.464 85.1528 17.1121 83.2066C16.7597 81.2626 16.5837 79.2835 16.5837 77.267V30.9995H0V77.267C0 87.411 2.7991 94.9146 8.39729 99.7757C13.9959 104.639 21.9005 107.071 32.1111 107.071C42.1815 107.071 50.0682 104.622 55.7723 99.7252C61.4763 94.8268 64.3281 87.3407 64.3281 77.267Z" fill="#00CCFF"/>
<path d="M93.3094 66.431L67.0073 105.404H85.5982L102.393 79.6635L118.871 105.404H138.624L112.322 66.5343L136.511 30.9995H118.344L103.027 54.7582L88.2392 30.9995H69.0145L93.3094 66.431Z" fill="#0099FF"/>
</svg>
